<svg xmlns="http://www.w3.org/2000/svg" xmlns:xlink="http://www.w3.org/1999/xlink" id="visual" version="1.1" viewBox="0 536.84 900 64.16"><path d="M0 542L30 543.3C60 544.7 120 547.3 180 548C240 548.7 300 547.3 360 545C420 542.7 480 539.3 540 537.8C600 536.3 660 536.7 720 538C780 539.3 840 541.7 870 542.8L900 544L900 601L870 601C840 601 780 601 720 601C660 601 600 601 540 601C480 601 420 601 360 601C300 601 240 601 180 601C120 601 60 601 30 601L0 601Z" fill="#FFFFFF" stroke-linecap="round" stroke-linejoin="miter"/></svg>